ffmpeg started on 2025-07-06 at 18:12:29
Report written to "D:\Convert\FFMetrics\reports\psnr_report-6.txt"
Log level: 32
Command line:
ffmpeg -hide_banner -nostdin -i "G:\\\xc0\xed\xe8\xec\xe5\\\xce\xed\xe3\xee\xe8\xed\xe3\xe8\\!_37_\xc7\xe8\xec\xe0_2025\\JamClub\\\xc3\xee\xeb\xf3\xe1\xe0\xff \xf8\xea\xe0\xf2\xf3\xeb\xea\xe0\\JamClub_Ao_no_Hako_20_1080p_HEVC.mkv" -i "G:\\\xc0\xed\xe8\xec\xe5\\\xce\xed\xe3\xee\xe8\xed\xe3\xe8\\!_37_\xc7\xe8\xec\xe0_2025\\JamClub\\\xc3\xee\xeb\xf3\xe1\xe0\xff \xf8\xea\xe0\xf2\xf3\xeb\xea\xe0\\JamClub_Ao_no_Hako_20_1080p.mp4" -lavfi "[0:v]settb=AVTB,setpts=PTS-STARTPTS,format=pix_fmts=yuv420p10,fps=24000/1001,scale=1920:1080:flags=bicubic[main];[1:v]settb=AVTB,setpts=PTS-STARTPTS,format=pix_fmts=yuv420p,fps=24000/1001,scale=1920:1080:flags=bicubic[ref];[main][ref]psnr=eof_action=endall:stats_file='D\\:/Convert/FFMetrics/logs/psnr_logfile-6.txt'" -f null -
Input #0, matroska,webm, from 'G:\Аниме\Онгоинги\!_37_Зима_2025\JamClub\Голубая шкатулка\JamClub_Ao_no_Hako_20_1080p_HEVC.mkv':
  Metadata:
    COMPATIBLE_BRANDS: isomiso2avc1mp41
    MAJOR_BRAND     : isom
    MINOR_VERSION   : 512
    ENCODER         : Lavf61.7.100
  Duration: 00:23:59.25, start: -0.001000, bitrate: 1061 kb/s
  Stream #0:0: Video: hevc (Main 10), yuv420p10le(tv, bt709, progressive), 1920x1080 [SAR 1:1 DAR 16:9], 23.98 fps, 23.98 tbr, 1k tbn (default)
      Metadata:
        HANDLER_NAME    : VideoHandler
        VENDOR_ID       : [0][0][0][0]
        ENCODER         : Lavc61.19.100 libx265
        BPS             : 864971
        DURATION        : 00:23:59.187708333
        NUMBER_OF_FRAMES: 34506
        NUMBER_OF_BYTES : 155606890
        _STATISTICS_WRITING_APP: mkvpropedit v66.0.0 ('Josie') 64-bit
        _STATISTICS_WRITING_DATE_UTC: 2025-07-06 10:39:33
        _STATISTICS_TAGS: BPS DURATION NUMBER_OF_FRAMES NUMBER_OF_BYTES
  Stream #0:1(eng): Audio: aac (LC), 48000 Hz, stereo, fltp (default)
      Metadata:
        HANDLER_NAME    : SoundHandler
        VENDOR_ID       : [0][0][0][0]
        ENCODER         : Lavc61.19.100 aac
        BPS             : 192749
        DURATION        : 00:23:59.213000000
        NUMBER_OF_FRAMES: 67464
        NUMBER_OF_BYTES : 34675917
        _STATISTICS_WRITING_APP: mkvpropedit v66.0.0 ('Josie') 64-bit
        _STATISTICS_WRITING_DATE_UTC: 2025-07-06 10:39:33
        _STATISTICS_TAGS: BPS DURATION NUMBER_OF_FRAMES NUMBER_OF_BYTES
Input #1, mov,mp4,m4a,3gp,3g2,mj2, from 'G:\Аниме\Онгоинги\!_37_Зима_2025\JamClub\Голубая шкатулка\JamClub_Ao_no_Hako_20_1080p.mp4':
  Metadata:
    major_brand     : isom
    minor_version   : 512
    compatible_brands: isomiso2avc1mp41
    encoder         : Lavf60.16.100
  Duration: 00:23:59.23, start: 0.000000, bitrate: 4444 kb/s
  Stream #1:0[0x1](und): Video: h264 (High) (avc1 / 0x31637661), yuv420p(progressive), 1920x1080 [SAR 1:1 DAR 16:9], 4246 kb/s, 23.98 fps, 23.98 tbr, 90k tbn (default)
      Metadata:
        handler_name    : VideoHandler
        vendor_id       : [0][0][0][0]
  Stream #1:1[0x2](eng): Audio: aac (LC) (mp4a / 0x6134706D), 48000 Hz, stereo, fltp, 191 kb/s (default)
      Metadata:
        handler_name    : SoundHandler
        vendor_id       : [0][0][0][0]
Stream mapping:
  Stream #0:0 (hevc) -> settb:default
  Stream #1:0 (h264) -> settb:default
  psnr:default -> Stream #0:0 (wrapped_avframe)
  Stream #0:1 -> #0:1 (aac (native) -> pcm_s16le (native))
Output #0, null, to 'pipe:':
  Metadata:
    COMPATIBLE_BRANDS: isomiso2avc1mp41
    MAJOR_BRAND     : isom
    MINOR_VERSION   : 512
    encoder         : Lavf61.7.100
  Stream #0:0: Video: wrapped_avframe, yuv420p10le(tv, bt709, progressive), 1920x1080 [SAR 1:1 DAR 16:9], q=2-31, 200 kb/s, 23.98 fps, 23.98 tbn
      Metadata:
        encoder         : Lavc61.19.100 wrapped_avframe
  Stream #0:1(eng): Audio: pcm_s16le, 48000 Hz, stereo, s16, 1536 kb/s (default)
      Metadata:
        HANDLER_NAME    : SoundHandler
        VENDOR_ID       : [0][0][0][0]
        _STATISTICS_TAGS: BPS DURATION NUMBER_OF_FRAMES NUMBER_OF_BYTES
        BPS             : 192749
        DURATION        : 00:23:59.213000000
        NUMBER_OF_FRAMES: 67464
        NUMBER_OF_BYTES : 34675917
        _STATISTICS_WRITING_APP: mkvpropedit v66.0.0 ('Josie') 64-bit
        _STATISTICS_WRITING_DATE_UTC: 2025-07-06 10:39:33
        encoder         : Lavc61.19.100 pcm_s16le
frame=  107 fps=0.0 q=-0.0 size=N/A time=00:00:04.46 bitrate=N/A speed=8.64x    frame=  262 fps=255 q=-0.0 size=N/A time=00:00:10.92 bitrate=N/A speed=10.6x    frame=  454 fps=295 q=-0.0 size=N/A time=00:00:18.93 bitrate=N/A speed=12.3x    frame=  698 fps=338 q=-0.0 size=N/A time=00:00:29.11 bitrate=N/A speed=14.1x    frame=  949 fps=368 q=-0.0 size=N/A time=00:00:39.58 bitrate=N/A speed=15.4x    frame= 1197 fps=387 q=-0.0 size=N/A time=00:00:49.92 bitrate=N/A speed=16.2x    frame= 1452 fps=403 q=-0.0 size=N/A time=00:01:00.56 bitrate=N/A speed=16.8x    frame= 1695 fps=411 q=-0.0 size=N/A time=00:01:10.69 bitrate=N/A speed=17.1x    frame= 1941 fps=418 q=-0.0 size=N/A time=00:01:20.95 bitrate=N/A speed=17.4x    frame= 2190 fps=425 q=-0.0 size=N/A time=00:01:31.34 bitrate=N/A speed=17.7x    frame= 2444 fps=432 q=-0.0 size=N/A time=00:01:41.93 bitrate=N/A speed=  18x    frame= 2713 fps=438 q=-0.0 size=N/A time=00:01:53.15 bitrate=N/A speed=18.3x    frame= 2965 fps=442 q=-0.0 size=N/A time=00:02:03.66 bitrate=N/A speed=18.5x    frame= 3217 fps=446 q=-0.0 size=N/A time=00:02:14.17 bitrate=N/A speed=18.6x    frame= 3465 fps=449 q=-0.0 size=N/A time=00:02:24.51 bitrate=N/A speed=18.7x    frame= 3706 fps=449 q=-0.0 size=N/A time=00:02:34.57 bitrate=N/A speed=18.7x    frame= 3963 fps=452 q=-0.0 size=N/A time=00:02:45.29 bitrate=N/A speed=18.9x    frame= 4181 fps=451 q=-0.0 size=N/A time=00:02:54.38 bitrate=N/A speed=18.8x    frame= 4399 fps=449 q=-0.0 size=N/A time=00:03:03.47 bitrate=N/A speed=18.7x    frame= 4624 fps=448 q=-0.0 size=N/A time=00:03:12.85 bitrate=N/A speed=18.7x    frame= 4831 fps=446 q=-0.0 size=N/A time=00:03:21.49 bitrate=N/A speed=18.6x    frame= 5066 fps=447 q=-0.0 size=N/A time=00:03:31.29 bitrate=N/A speed=18.6x    frame= 5255 fps=443 q=-0.0 size=N/A time=00:03:39.17 bitrate=N/A speed=18.5x    frame= 5482 fps=443 q=-0.0 size=N/A time=00:03:48.64 bitrate=N/A speed=18.5x    frame= 5735 fps=445 q=-0.0 size=N/A time=00:03:59.19 bitrate=N/A speed=18.6x    frame= 5955 fps=445 q=-0.0 size=N/A time=00:04:08.37 bitrate=N/A speed=18.5x    frame= 6173 fps=443 q=-0.0 size=N/A time=00:04:17.46 bitrate=N/A speed=18.5x    frame= 6428 fps=445 q=-0.0 size=N/A time=00:04:28.10 bitrate=N/A speed=18.6x    frame= 6679 fps=447 q=-0.0 size=N/A time=00:04:38.56 bitrate=N/A speed=18.6x    frame= 6922 fps=448 q=-0.0 size=N/A time=00:04:48.70 bitrate=N/A speed=18.7x    frame= 7179 fps=449 q=-0.0 size=N/A time=00:04:59.42 bitrate=N/A speed=18.7x    frame= 7435 fps=451 q=-0.0 size=N/A time=00:05:10.10 bitrate=N/A speed=18.8x    frame= 7708 fps=453 q=-0.0 size=N/A time=00:05:21.48 bitrate=N/A speed=18.9x    frame= 7971 fps=455 q=-0.0 size=N/A time=00:05:32.45 bitrate=N/A speed=  19x    frame= 8227 fps=455 q=-0.0 size=N/A time=00:05:43.13 bitrate=N/A speed=  19x    frame= 8496 fps=457 q=-0.0 size=N/A time=00:05:54.35 bitrate=N/A speed=19.1x    frame= 8766 fps=459 q=-0.0 size=N/A time=00:06:05.61 bitrate=N/A speed=19.2x    frame= 8993 fps=459 q=-0.0 size=N/A time=00:06:15.08 bitrate=N/A speed=19.1x    frame= 9251 fps=460 q=-0.0 size=N/A time=00:06:25.84 bitrate=N/A speed=19.2x    frame= 9525 fps=462 q=-0.0 size=N/A time=00:06:37.27 bitrate=N/A speed=19.3x    frame= 9793 fps=463 q=-0.0 size=N/A time=00:06:48.44 bitrate=N/A speed=19.3x    frame=10065 fps=464 q=-0.0 size=N/A time=00:06:59.79 bitrate=N/A speed=19.4x    frame=10320 fps=465 q=-0.0 size=N/A time=00:07:10.43 bitrate=N/A speed=19.4x    frame=10588 fps=466 q=-0.0 size=N/A time=00:07:21.60 bitrate=N/A speed=19.5x    frame=10857 fps=468 q=-0.0 size=N/A time=00:07:32.82 bitrate=N/A speed=19.5x    frame=11119 fps=468 q=-0.0 size=N/A time=00:07:43.75 bitrate=N/A speed=19.5x    frame=11380 fps=469 q=-0.0 size=N/A time=00:07:54.64 bitrate=N/A speed=19.6x    frame=11640 fps=470 q=-0.0 size=N/A time=00:08:05.48 bitrate=N/A speed=19.6x    frame=11907 fps=471 q=-0.0 size=N/A time=00:08:16.62 bitrate=N/A speed=19.6x    frame=12139 fps=471 q=-0.0 size=N/A time=00:08:26.29 bitrate=N/A speed=19.6x    frame=12364 fps=470 q=-0.0 size=N/A time=00:08:35.68 bitrate=N/A speed=19.6x    frame=12577 fps=469 q=-0.0 size=N/A time=00:08:44.56 bitrate=N/A speed=19.6x    frame=12824 fps=469 q=-0.0 size=N/A time=00:08:54.86 bitrate=N/A speed=19.6x    frame=13081 fps=470 q=-0.0 size=N/A time=00:09:05.58 bitrate=N/A speed=19.6x    frame=13332 fps=470 q=-0.0 size=N/A time=00:09:16.05 bitrate=N/A speed=19.6x    frame=13518 fps=468 q=-0.0 size=N/A time=00:09:23.81 bitrate=N/A speed=19.5x    frame=13766 fps=468 q=-0.0 size=N/A time=00:09:34.15 bitrate=N/A speed=19.5x    frame=14018 fps=469 q=-0.0 size=N/A time=00:09:44.66 bitrate=N/A speed=19.5x    frame=14276 fps=469 q=-0.0 size=N/A time=00:09:55.42 bitrate=N/A speed=19.6x    frame=14538 fps=470 q=-0.0 size=N/A time=00:10:06.35 bitrate=N/A speed=19.6x    frame=14800 fps=470 q=-0.0 size=N/A time=00:10:17.28 bitrate=N/A speed=19.6x    frame=15057 fps=471 q=-0.0 size=N/A time=00:10:28.00 bitrate=N/A speed=19.6x    frame=15252 fps=469 q=-0.0 size=N/A time=00:10:36.13 bitrate=N/A speed=19.6x    frame=15472 fps=469 q=-0.0 size=N/A time=00:10:45.31 bitrate=N/A speed=19.5x    frame=15691 fps=468 q=-0.0 size=N/A time=00:10:54.44 bitrate=N/A speed=19.5x    frame=15948 fps=468 q=-0.0 size=N/A time=00:11:05.16 bitrate=N/A speed=19.5x    frame=16203 fps=469 q=-0.0 size=N/A time=00:11:15.80 bitrate=N/A speed=19.6x    frame=16444 fps=469 q=-0.0 size=N/A time=00:11:25.85 bitrate=N/A speed=19.6x    frame=16657 fps=468 q=-0.0 size=N/A time=00:11:34.73 bitrate=N/A speed=19.5x    frame=16917 fps=469 q=-0.0 size=N/A time=00:11:45.57 bitrate=N/A speed=19.5x    frame=17178 fps=469 q=-0.0 size=N/A time=00:11:56.46 bitrate=N/A speed=19.6x    frame=17426 fps=469 q=-0.0 size=N/A time=00:12:06.80 bitrate=N/A speed=19.6x    frame=17688 fps=470 q=-0.0 size=N/A time=00:12:17.73 bitrate=N/A speed=19.6x    frame=17934 fps=470 q=-0.0 size=N/A time=00:12:27.99 bitrate=N/A speed=19.6x    frame=18183 fps=470 q=-0.0 size=N/A time=00:12:38.38 bitrate=N/A speed=19.6x    frame=18452 fps=471 q=-0.0 size=N/A time=00:12:49.60 bitrate=N/A speed=19.6x    frame=18693 fps=471 q=-0.0 size=N/A time=00:12:59.65 bitrate=N/A speed=19.6x    frame=18951 fps=471 q=-0.0 size=N/A time=00:13:10.41 bitrate=N/A speed=19.6x    frame=19210 fps=471 q=-0.0 size=N/A time=00:13:21.21 bitrate=N/A speed=19.7x    frame=19465 fps=472 q=-0.0 size=N/A time=00:13:31.85 bitrate=N/A speed=19.7x    frame=19704 fps=472 q=-0.0 size=N/A time=00:13:41.82 bitrate=N/A speed=19.7x    frame=19962 fps=472 q=-0.0 size=N/A time=00:13:52.58 bitrate=N/A speed=19.7x    frame=20188 fps=472 q=-0.0 size=N/A time=00:14:02.00 bitrate=N/A speed=19.7x    frame=20448 fps=472 q=-0.0 size=N/A time=00:14:12.85 bitrate=N/A speed=19.7x    frame=20683 fps=472 q=-0.0 size=N/A time=00:14:22.65 bitrate=N/A speed=19.7x    frame=20936 fps=472 q=-0.0 size=N/A time=00:14:33.20 bitrate=N/A speed=19.7x    frame=21204 fps=472 q=-0.0 size=N/A time=00:14:44.38 bitrate=N/A speed=19.7x    frame=21415 fps=472 q=-0.0 size=N/A time=00:14:53.18 bitrate=N/A speed=19.7x    frame=21625 fps=471 q=-0.0 size=N/A time=00:15:01.94 bitrate=N/A speed=19.7x    frame=21841 fps=471 q=-0.0 size=N/A time=00:15:10.95 bitrate=N/A speed=19.6x    frame=22110 fps=471 q=-0.0 size=N/A time=00:15:22.17 bitrate=N/A speed=19.6x    frame=22355 fps=471 q=-0.0 size=N/A time=00:15:32.38 bitrate=N/A speed=19.6x    frame=22604 fps=471 q=-0.0 size=N/A time=00:15:42.81 bitrate=N/A speed=19.7x    frame=22843 fps=471 q=-0.0 size=N/A time=00:15:52.74 bitrate=N/A speed=19.7x    frame=23065 fps=471 q=-0.0 size=N/A time=00:16:02.00 bitrate=N/A speed=19.6x    frame=23284 fps=470 q=-0.0 size=N/A time=00:16:11.13 bitrate=N/A speed=19.6x    frame=23510 fps=470 q=-0.0 size=N/A time=00:16:20.56 bitrate=N/A speed=19.6x    frame=23741 fps=470 q=-0.0 size=N/A time=00:16:30.19 bitrate=N/A speed=19.6x    frame=23977 fps=470 q=-0.0 size=N/A time=00:16:40.04 bitrate=N/A speed=19.6x    frame=24225 fps=470 q=-0.0 size=N/A time=00:16:50.38 bitrate=N/A speed=19.6x    frame=24439 fps=469 q=-0.0 size=N/A time=00:16:59.30 bitrate=N/A speed=19.6x    frame=24696 fps=469 q=-0.0 size=N/A time=00:17:10.02 bitrate=N/A speed=19.6x    frame=24956 fps=470 q=-0.0 size=N/A time=00:17:20.87 bitrate=N/A speed=19.6x    frame=25191 fps=470 q=-0.0 size=N/A time=00:17:30.67 bitrate=N/A speed=19.6x    frame=25438 fps=470 q=-0.0 size=N/A time=00:17:40.97 bitrate=N/A speed=19.6x    frame=25711 fps=470 q=-0.0 size=N/A time=00:17:52.36 bitrate=N/A speed=19.6x    frame=25975 fps=471 q=-0.0 size=N/A time=00:18:03.37 bitrate=N/A speed=19.6x    frame=26221 fps=471 q=-0.0 size=N/A time=00:18:13.63 bitrate=N/A speed=19.6x    frame=26466 fps=471 q=-0.0 size=N/A time=00:18:23.85 bitrate=N/A speed=19.6x    frame=26719 fps=471 q=-0.0 size=N/A time=00:18:34.40 bitrate=N/A speed=19.6x    frame=26946 fps=471 q=-0.0 size=N/A time=00:18:43.87 bitrate=N/A speed=19.6x    frame=27199 fps=471 q=-0.0 size=N/A time=00:18:54.42 bitrate=N/A speed=19.6x    frame=27472 fps=471 q=-0.0 size=N/A time=00:19:05.81 bitrate=N/A speed=19.7x    frame=27722 fps=471 q=-0.0 size=N/A time=00:19:16.23 bitrate=N/A speed=19.7x    frame=27970 fps=472 q=-0.0 size=N/A time=00:19:26.58 bitrate=N/A speed=19.7x    frame=28234 fps=472 q=-0.0 size=N/A time=00:19:37.59 bitrate=N/A speed=19.7x    frame=28510 fps=472 q=-0.0 size=N/A time=00:19:49.10 bitrate=N/A speed=19.7x    frame=28750 fps=472 q=-0.0 size=N/A time=00:19:59.11 bitrate=N/A speed=19.7x    frame=29003 fps=473 q=-0.0 size=N/A time=00:20:09.66 bitrate=N/A speed=19.7x    frame=29260 fps=473 q=-0.0 size=N/A time=00:20:20.38 bitrate=N/A speed=19.7x    frame=29487 fps=472 q=-0.0 size=N/A time=00:20:29.85 bitrate=N/A speed=19.7x    frame=29710 fps=472 q=-0.0 size=N/A time=00:20:39.15 bitrate=N/A speed=19.7x    frame=29934 fps=472 q=-0.0 size=N/A time=00:20:48.49 bitrate=N/A speed=19.7x    frame=30170 fps=472 q=-0.0 size=N/A time=00:20:58.34 bitrate=N/A speed=19.7x    frame=30411 fps=472 q=-0.0 size=N/A time=00:21:08.39 bitrate=N/A speed=19.7x    frame=30658 fps=472 q=-0.0 size=N/A time=00:21:18.69 bitrate=N/A speed=19.7x    frame=30894 fps=472 q=-0.0 size=N/A time=00:21:28.53 bitrate=N/A speed=19.7x    frame=31130 fps=472 q=-0.0 size=N/A time=00:21:38.38 bitrate=N/A speed=19.7x    frame=31377 fps=472 q=-0.0 size=N/A time=00:21:48.68 bitrate=N/A speed=19.7x    frame=31602 fps=471 q=-0.0 size=N/A time=00:21:58.06 bitrate=N/A speed=19.7x    frame=31873 fps=472 q=-0.0 size=N/A time=00:22:09.36 bitrate=N/A speed=19.7x    frame=32137 fps=472 q=-0.0 size=N/A time=00:22:20.38 bitrate=N/A speed=19.7x    frame=32385 fps=472 q=-0.0 size=N/A time=00:22:30.72 bitrate=N/A speed=19.7x    frame=32616 fps=472 q=-0.0 size=N/A time=00:22:40.35 bitrate=N/A speed=19.7x    frame=32830 fps=472 q=-0.0 size=N/A time=00:22:49.28 bitrate=N/A speed=19.7x    frame=33035 fps=471 q=-0.0 size=N/A time=00:22:57.83 bitrate=N/A speed=19.6x    frame=33197 fps=470 q=-0.0 size=N/A time=00:23:04.59 bitrate=N/A speed=19.6x    frame=33422 fps=470 q=-0.0 size=N/A time=00:23:13.97 bitrate=N/A speed=19.6x    frame=33644 fps=469 q=-0.0 size=N/A time=00:23:23.23 bitrate=N/A speed=19.6x    frame=33837 fps=469 q=-0.0 size=N/A time=00:23:31.28 bitrate=N/A speed=19.5x    frame=34027 fps=468 q=-0.0 size=N/A time=00:23:39.20 bitrate=N/A speed=19.5x    frame=34260 fps=468 q=-0.0 size=N/A time=00:23:48.92 bitrate=N/A speed=19.5x    [Parsed_psnr_10 @ 000001b3ddbe4400] PSNR y:48.359954 u:51.095915 v:50.458801 average:49.023933 min:29.706912 max:inf
[out#0/null @ 000001b3d70cc040] video:14827KiB audio:269856KiB subtitle:0KiB other streams:0KiB global headers:0KiB muxing overhead: unknown
frame=34506 fps=468 q=-0.0 Lsize=N/A time=00:23:59.18 bitrate=N/A speed=19.5x    
